<svg width="119" height="119" viewBox="0 0 119 119" fill="none" xmlns="http://www.w3.org/2000/svg">
<circle cx="59.5" cy="59.5" r="59.5" fill="#EAD7FB"/>
<mask id="mask0_189_483" style="mask-type:luminance" maskUnits="userSpaceOnUse" x="35" y="24" width="50" height="72">
<path d="M35.1997 24.1666H84.8038V95.8332H35.1997V24.1666Z" fill="white"/>
</mask>
<g mask="url(#mask0_189_483)">
<path d="M79.3248 49.0242C81.6181 47.2594 83.3018 44.8215 84.1402 42.0519C84.9786 39.2824 84.9296 36.3199 84.0001 33.5796C83.0706 30.8392 81.3071 28.4583 78.9568 26.7704C76.6064 25.0824 73.7869 24.172 70.8932 24.1666H49.0635C46.1741 24.1788 43.3603 25.0909 41.0132 26.7761C38.6661 28.4613 36.9023 30.8359 35.9671 33.5698C35.0319 36.3037 34.9717 39.2611 35.7949 42.0307C36.618 44.8004 38.2837 47.2449 40.5603 49.0242C38.882 50.3235 37.5234 51.9898 36.5888 53.8955C35.6542 55.8011 35.1682 57.8954 35.1682 60.0178C35.1682 62.1403 35.6542 64.2346 36.5888 66.1402C37.5234 68.0458 38.882 69.7122 40.5603 71.0115C38.6863 72.4447 37.2089 74.3323 36.268 76.4957C35.327 78.6592 34.9535 81.0269 35.1829 83.3749C35.4122 85.7229 36.2368 87.9736 37.5786 89.9141C38.9205 91.8545 40.7351 93.4206 42.851 94.464C44.9669 95.5075 47.314 95.994 49.6704 95.8773C52.0267 95.7607 54.3143 95.0448 56.3168 93.7974C58.3192 92.5501 59.9704 90.8125 61.114 88.749C62.2576 86.6855 62.8559 84.3644 62.8522 82.0052V71.5096C65.1733 73.1805 67.9616 74.0782 70.8215 74.0753C73.7146 74.0684 76.5331 73.1569 78.8823 71.4684C81.2315 69.7799 82.9939 67.3989 83.9225 64.6589C84.8511 61.9189 84.8995 58.9571 84.0609 56.1882C83.2223 53.4193 81.5387 50.9821 79.246 49.2177L79.3248 49.0242ZM57.1834 82.0052C57.1834 83.6111 56.7071 85.181 55.8149 86.5163C54.9227 87.8516 53.6546 88.8923 52.1708 89.5069C50.6871 90.1215 49.0545 90.2823 47.4794 89.969C45.9043 89.6557 44.4575 88.8823 43.3219 87.7467C42.1863 86.6112 41.413 85.1644 41.0997 83.5893C40.7864 82.0142 40.9472 80.3815 41.5618 78.8978C42.1763 77.4141 43.2171 76.146 44.5524 75.2538C45.8877 74.3616 47.4576 73.8853 49.0635 73.8853H57.1834V82.0052ZM57.1834 68.1377H49.0635C46.91 68.1377 44.8447 67.2822 43.3219 65.7594C41.7992 64.2367 40.9437 62.1714 40.9437 60.0178C40.9437 57.8643 41.7992 55.799 43.3219 54.2763C44.8447 52.7535 46.91 51.898 49.0635 51.898H57.1834V68.1377ZM57.1834 46.1539H49.0635C46.9095 46.1539 44.8438 45.2983 43.3207 43.7752C41.7976 42.2521 40.9419 40.1863 40.9419 38.0323C40.9419 35.8783 41.7976 33.8126 43.3207 32.2895C44.8438 30.7664 46.9095 29.9107 49.0635 29.9107H57.1834V46.1539ZM70.8968 68.1413C68.9841 68.1477 67.1316 67.4724 65.6718 66.2365C64.212 65.0006 63.2403 63.285 62.931 61.3974C62.7262 60.4891 62.7262 59.5466 62.931 58.6383C63.1942 57.1114 63.8885 55.6917 64.932 54.5465C65.9756 53.4013 67.3249 52.5784 68.8208 52.1749C70.3166 51.7714 71.8967 51.804 73.3746 52.2691C74.8526 52.7341 76.1667 53.6121 77.162 54.7995C78.1573 55.9869 78.7923 57.4341 78.992 58.9705C79.1918 60.5069 78.948 62.0684 78.2895 63.4709C77.6309 64.8733 76.585 66.0581 75.2752 66.8856C73.9653 67.7132 72.4461 68.1488 70.8968 68.1413ZM70.8968 46.1539H62.931V29.9107H70.8968C71.9633 29.9107 73.0194 30.1208 74.0048 30.5289C74.9902 30.9371 75.8855 31.5353 76.6396 32.2895C77.3938 33.0436 77.992 33.939 78.4002 34.9243C78.8083 35.9097 79.0184 36.9658 79.0184 38.0323C79.0184 39.0989 78.8083 40.155 78.4002 41.1403C77.992 42.1257 77.3938 43.021 76.6396 43.7752C75.8855 44.5293 74.9902 45.1276 74.0048 45.5357C73.0194 45.9439 71.9633 46.1539 70.8968 46.1539Z" fill="#A828B1"/>
</g>
</svg>
