<svg width="119" height="119" viewBox="0 0 119 119" fill="none" xmlns="http://www.w3.org/2000/svg">
<circle cx="59.5" cy="59.5" r="59.5" fill="#EAD7FB"/>
<path d="M54.3025 50.97C55.5567 55.055 56.8467 59.14 58.1367 63.2966H50.54C51.83 59.14 53.0484 55.055 54.3025 50.97Z" fill="#A828B1"/>
<path d="M77.9167 24.1666H42.0834C37.3316 24.1666 32.7744 26.0543 29.4144 29.4143C26.0544 32.7743 24.1667 37.3315 24.1667 42.0833V77.9166C24.1667 82.6684 26.0544 87.2255 29.4144 90.5856C32.7744 93.9456 37.3316 95.8332 42.0834 95.8332H77.9167C82.6685 95.8332 87.2257 93.9456 90.5857 90.5856C93.9457 87.2255 95.8334 82.6684 95.8334 77.9166V42.0833C95.8334 37.3315 93.9457 32.7743 90.5857 29.4143C87.2257 26.0543 82.6685 24.1666 77.9167 24.1666ZM68.9225 77.1283H63.3326C63.1096 77.1592 62.8834 77.1015 62.7025 76.9675C62.5216 76.8335 62.4004 76.6339 62.3651 76.4116C61.6842 74.4049 60.9676 72.3983 60.2867 70.3558C60.2653 70.2277 60.2183 70.1053 60.1485 69.9958C60.0787 69.8862 59.9876 69.7919 59.8806 69.7183C59.7736 69.6448 59.6529 69.5935 59.5257 69.5676C59.3985 69.5416 59.2673 69.5416 59.1401 69.5674H49.6084C49.476 69.5362 49.3385 69.5332 49.2049 69.5587C49.0713 69.5842 48.9446 69.6376 48.833 69.7153C48.7214 69.7931 48.6275 69.8935 48.5574 70.0101C48.4872 70.1266 48.4424 70.2566 48.4259 70.3916C47.8167 72.3983 47.1359 74.3333 46.5267 76.3399C46.5097 76.4665 46.4668 76.5883 46.4007 76.6976C46.3346 76.8069 46.2468 76.9015 46.1426 76.9754C46.0384 77.0494 45.9201 77.1011 45.7951 77.1274C45.6701 77.1537 45.541 77.154 45.4159 77.1283H40.5067C39.6467 77.1283 39.5751 77.1283 39.8617 76.2324L47.6017 53.9083C48.3184 51.8658 49.0351 49.8233 49.6801 47.7808C49.8573 47.175 49.9536 46.5485 49.9667 45.9174C49.9667 45.1649 50.2534 44.9858 50.9342 45.0216H57.7784C58.2801 45.0216 58.5309 45.0216 58.7101 45.7024L67.5251 70.5349C68.2059 72.4699 68.8867 74.3691 69.5317 76.2683C69.8184 77.0566 69.7825 77.1283 68.9225 77.1283ZM79.8875 76.5191C79.8875 77.1283 79.6367 77.3074 79.0634 77.3074H73.9034C73.1867 77.3074 73.0075 77.0208 73.0075 76.3758V53.8724C73.0075 53.1558 73.2225 52.8691 73.975 52.9049H79.0275C79.6009 52.9049 79.8875 52.9049 79.8875 53.6933C79.8636 61.2899 79.8636 68.8985 79.8875 76.5191ZM76.3042 50.3608C75.7908 50.3934 75.2763 50.315 74.7958 50.1311C74.3154 49.9471 73.8801 49.6618 73.5198 49.2947C73.1594 48.9275 72.8823 48.487 72.7074 48.0032C72.5324 47.5193 72.4637 47.0035 72.5059 46.4908C72.5104 45.9811 72.6166 45.4775 72.8181 45.0093C73.0196 44.5412 73.3124 44.1179 73.6794 43.7642C74.0464 43.4105 74.4802 43.1336 74.9555 42.9496C75.4308 42.7655 75.9381 42.6781 76.4475 42.6924C76.9432 42.6909 77.4339 42.7921 77.8884 42.9899C78.343 43.1876 78.7516 43.4775 79.0883 43.8412C79.4251 44.2049 79.6828 44.6346 79.845 45.103C80.0072 45.5714 80.0705 46.0683 80.0309 46.5624C80.0602 47.0508 79.9893 47.54 79.8224 47.9998C79.6555 48.4597 79.3962 48.8805 79.0605 49.2364C78.7248 49.5923 78.3198 49.8756 77.8704 50.069C77.421 50.2623 76.9368 50.3617 76.4475 50.3608H76.3042Z" fill="#A828B1"/>
<path d="M58.1367 63.2966H50.54C51.83 59.14 53.0484 55.055 54.1234 50.97C55.5567 55.055 56.8467 59.14 58.1367 63.2966Z" fill="#A828B1"/>
</svg>
