<svg width="119" height="119" viewBox="0 0 119 119" fill="none" xmlns="http://www.w3.org/2000/svg">
<circle cx="59.5" cy="59.5" r="59.5" fill="#EAD7FB"/>
<path d="M90.2146 63.2394V84.7178C90.1537 87.2154 88.9425 88.595 86.4413 88.8028C83.5711 89.0393 80.6865 89.1898 77.8055 89.3618C72.0005 89.7202 66.1943 90.0713 60.3869 90.4153C55.2449 90.7199 50.1028 90.9887 44.9678 91.3363C42.696 91.4832 40.9079 90.7665 39.6502 88.8172C39.2775 88.2402 38.8009 87.7207 38.3781 87.1688C36.2281 84.3953 34.096 81.6147 31.9353 78.8555C30.4831 77.0748 29.712 74.8354 29.7602 72.5381C29.8319 60.3189 29.7889 48.107 29.796 35.8914C29.796 35.4303 29.8319 34.9717 29.9035 34.5154C30.2332 32.7237 31.344 31.6129 33.1572 31.4409C36.1242 31.1614 39.1378 30.9679 42.1299 30.7421L56.4274 29.6886C61.0069 29.3554 65.5863 29.0365 70.1659 28.6745C72.4612 28.4884 74.7434 29.1657 76.5657 30.5737C80.6005 33.5013 84.6999 36.3321 88.792 39.188C89.2657 39.4919 89.6494 39.917 89.9033 40.4192C90.1572 40.9214 90.2721 41.4824 90.2361 42.044C90.1967 49.1067 90.2146 56.173 90.2146 63.2394ZM86.0508 63.5153V45.226C86.0508 43.463 85.4309 42.8538 83.7216 42.9541L68.8508 43.7998L50.6116 44.8676C48.4688 44.9895 46.3259 45.1208 44.1831 45.2618C43.0472 45.3406 42.5312 45.8423 42.3628 46.9567C42.3198 47.2792 42.3019 47.6017 42.309 47.9242V83.2558C42.309 86.0043 43.04 86.6922 45.7992 86.531C48.5583 86.3698 51.3139 86.1906 54.1018 86.0293L83.6249 84.3344C85.2087 84.2448 85.9289 83.5461 86.0544 81.973C86.0759 81.6971 86.0544 81.4212 86.0544 81.1273L86.0508 63.5153ZM81.5824 38.733L81.6791 38.5502C81.4627 38.2844 81.2228 38.0386 80.9624 37.8156C79.0059 36.3859 77.0279 34.9848 75.075 33.5765C73.7958 32.5983 72.2084 32.1074 70.5994 32.197C67.3959 32.3905 64.1996 32.6449 60.9961 32.8778L40.4134 34.372C38.9371 34.4795 37.4429 34.5942 36.0023 34.7662C35.8412 34.7984 35.6895 34.8672 35.5591 34.9672C35.4286 35.0672 35.3228 35.1958 35.2498 35.3431C35.1889 35.5187 35.4792 35.9129 35.7049 36.0956C37.3174 37.3964 38.9586 38.6756 40.5854 39.9585C41.4634 40.6895 42.5849 41.0693 43.7244 41.0227C44.2799 40.9976 44.8353 41.0227 45.3871 40.9725L60.3224 40.0552L80.1669 38.887C80.6399 38.8321 81.1117 38.7807 81.5824 38.733Z" fill="#A828B1"/>
<path d="M72.6385 69.6319V52.9336C71.7355 52.8261 70.8719 52.7007 70.0011 52.6362C69.5246 52.6003 69.4135 52.3853 69.4636 51.9661C69.5095 51.5113 69.7093 51.0858 70.0299 50.76C70.3504 50.4342 70.7727 50.2276 71.2266 50.1744C74.1041 49.9594 76.9815 49.8125 79.8446 49.6405C80.271 51.0631 79.8446 51.7618 78.4829 52.0306C76.9815 52.3423 76.9815 52.3423 76.9815 53.8653V78.3932C76.9815 78.9629 76.831 79.3105 76.2935 79.4789C75.3464 79.8343 74.3811 80.1393 73.4017 80.3927C71.8286 80.7223 70.4347 80.2852 69.4995 78.9271C68.1972 77.0507 66.925 75.1537 65.6832 73.2367C62.8022 68.7791 59.957 64.3035 57.094 59.8351C57.0366 59.7419 56.9578 59.6523 56.7965 59.4302C56.7607 59.7383 56.7285 59.9139 56.7285 60.0967V76.795C56.7285 77.2859 56.8861 77.4866 57.3591 77.5762C58.4198 77.784 59.4769 78.0384 60.5125 78.2713C60.4942 78.7912 60.2881 79.2869 59.9323 79.6664C59.5765 80.046 59.0951 80.2836 58.5775 80.3353C57.7087 80.4527 56.8343 80.5245 55.958 80.5503C53.8367 80.6793 51.7154 80.7796 49.5976 80.9302C48.9777 80.9732 48.8523 80.7151 48.9598 80.2099C48.9928 79.907 49.1192 79.6218 49.3214 79.3939C49.5236 79.166 49.7917 79.0066 50.0885 78.9378C50.755 78.7766 51.4144 78.5652 52.0737 78.3788V54.4063L49.1031 54.1412C49.0039 53.8319 48.9771 53.504 49.0246 53.1827C49.0722 52.8614 49.1929 52.5553 49.3774 52.2881C49.5619 52.0208 49.8054 51.7995 50.089 51.6411C50.3725 51.4828 50.6887 51.3917 51.013 51.3748C53.611 51.167 56.2268 51.0882 58.8175 50.7943C59.9248 50.6725 60.4408 51.081 60.9962 51.9374C64.662 57.5847 68.3779 63.2106 72.0795 68.84L72.6385 69.6319Z" fill="#A828B1"/>
</svg>
