<svg width="119" height="119" viewBox="0 0 119 119" fill="none" xmlns="http://www.w3.org/2000/svg">
<circle cx="59.5" cy="59.5" r="59.5" fill="#EAD7FB"/>
<path d="M54.4459 54.5534C54.5001 55.6414 54.1713 56.714 53.5166 57.5848C52.862 58.4555 51.9229 59.0692 50.8626 59.3192C48.992 59.8716 47.0412 60.1019 45.0934 60.0001C44.5917 60.0001 44.5559 59.6776 44.5559 59.3192V50.1817C44.5559 49.9309 44.8067 49.5009 44.9501 49.5009C46.9999 49.2714 49.0741 49.4048 51.0776 49.8951C52.0859 50.1714 52.9695 50.7839 53.5821 51.6311C54.1946 52.4783 54.4994 53.5093 54.4459 54.5534Z" fill="#A828B1"/>
<path d="M77.9167 24.1666H42.0834C37.3316 24.1666 32.7744 26.0543 29.4144 29.4143C26.0544 32.7743 24.1667 37.3315 24.1667 42.0833V77.9166C24.1667 82.6684 26.0544 87.2255 29.4144 90.5856C32.7744 93.9456 37.3316 95.8332 42.0834 95.8332H77.9167C82.6685 95.8332 87.2257 93.9456 90.5857 90.5856C93.9457 87.2255 95.8334 82.6684 95.8334 77.9166V42.0833C95.8334 37.3315 93.9457 32.7743 90.5857 29.4143C87.2257 26.0543 82.6685 24.1666 77.9167 24.1666ZM56.4167 63.5833C54.6083 64.7318 52.5357 65.398 50.3967 65.5183H45.5951C44.5917 65.5183 44.5917 65.5183 44.5917 66.4858V74.7991C44.5917 75.5158 44.3767 75.7308 43.6601 75.7308H38.9301C38.2492 75.7308 38.0701 75.4799 38.0701 74.8349V44.6274C38.0701 43.9108 38.0701 43.6958 38.9659 43.6958H50.1817C52.229 43.7513 54.2277 44.3311 55.9867 45.3799C57.5059 46.2359 58.7707 47.4797 59.652 48.9843C60.5334 50.4889 60.9997 52.2004 61.0034 53.9441C61.2107 55.8184 60.8913 57.7133 60.081 59.416C59.2708 61.1188 58.0018 62.5619 56.4167 63.5833ZM77.63 75.4083C74.5138 76.6224 71.1019 76.8598 67.8475 76.0891C66.8705 75.8741 65.9149 75.5874 64.9809 75.2291C64.8368 75.1615 64.7102 75.0617 64.6108 74.9375C64.5114 74.8132 64.4419 74.6678 64.4076 74.5124V69.1016C65.5542 69.5316 66.6292 70.0333 67.74 70.3916C69.6017 70.9866 71.5728 71.158 73.5092 70.8933C73.8962 70.8216 74.2665 70.7021 74.62 70.5349C74.83 70.443 75.0126 70.2981 75.1499 70.1145C75.2872 69.9309 75.3746 69.7149 75.4035 69.4875C75.4324 69.26 75.4018 69.029 75.3147 68.8169C75.2276 68.6048 75.0871 68.419 74.9067 68.2774C74.087 67.71 73.2103 67.2296 72.2909 66.8441C70.8217 66.1274 69.3167 65.5541 67.9192 64.7299C66.6574 64.1161 65.6272 63.1116 64.9817 61.8657C64.3362 60.6198 64.1097 59.1989 64.3359 57.8141C64.5181 56.4813 65.0718 55.2267 65.9337 54.1937C66.7955 53.1608 67.9306 52.3913 69.2092 51.9733C71.5138 51.194 73.9729 50.985 76.3759 51.3641C77.5225 51.3641 78.6334 51.7941 79.78 52.0091C80.3892 52.0091 80.6042 52.5108 80.5684 53.1199V57.3124C80.5684 58.1008 80.3892 58.1724 79.6725 57.8858C77.4345 56.8496 74.9606 56.429 72.5059 56.6674C72.1581 56.7079 71.8192 56.8047 71.5025 56.9541C71.2876 57.0385 71.0984 57.1776 70.9537 57.3576C70.809 57.5376 70.7139 57.7523 70.6777 57.9804C70.6415 58.2084 70.6655 58.442 70.7473 58.658C70.8291 58.8739 70.966 59.0648 71.1442 59.2116C72.181 59.902 73.2679 60.4992 74.405 61.0033C75.7667 61.6841 77.2 62.2216 78.5259 62.9741C79.7289 63.5216 80.7255 64.4392 81.3702 65.5931C82.0148 66.747 82.2738 68.0768 82.1092 69.3883C81.9959 70.6966 81.5106 71.9451 80.7106 72.9864C79.9105 74.0278 78.8292 74.8184 77.5942 75.2649L77.63 75.4083Z" fill="#A828B1"/>
</svg>
