<svg width="119" height="119" viewBox="0 0 119 119" fill="none" xmlns="http://www.w3.org/2000/svg">
<circle cx="59.5" cy="59.5" r="59.5" fill="#EAD7FB"/>
<path d="M55.0909 56.8108C54.8786 57.478 54.5013 58.0807 53.9939 58.563C53.4865 59.0454 52.8655 59.3917 52.1884 59.57C50.3032 60.1089 48.3275 60.2552 46.3834 60C45.9893 60 45.8459 60 45.8459 59.4267V50.6833C45.8459 50.3608 45.8459 50.0742 46.2759 50.0742C47.9768 50.0503 49.6729 50.1339 51.3643 50.325C52.0863 50.41 52.7784 50.6628 53.3852 51.0631C53.992 51.4635 54.4967 52.0003 54.8589 52.6306C55.2211 53.261 55.4307 53.9673 55.471 54.6932C55.5113 55.4191 55.3811 56.1443 55.0909 56.8108Z" fill="#A828B1"/>
<path d="M77.9167 24.1666H42.0834C37.3316 24.1666 32.7744 26.0543 29.4144 29.4143C26.0544 32.7743 24.1667 37.3315 24.1667 42.0833V77.9166C24.1667 82.6684 26.0544 87.2255 29.4144 90.5856C32.7744 93.9456 37.3316 95.8332 42.0834 95.8332H77.9167C82.6685 95.8332 87.2257 93.9456 90.5857 90.5856C93.9457 87.2255 95.8334 82.6684 95.8334 77.9166V42.0833C95.8334 37.3315 93.9457 32.7743 90.5857 29.4143C87.2257 26.0543 82.6685 24.1666 77.9167 24.1666ZM59.4984 62.0424C57.6605 64.1158 55.0931 65.3995 52.3317 65.6258C50.5401 65.8408 48.7484 65.6258 46.9567 65.9124H45.6667V75.1216C45.6667 75.8383 45.6667 75.9458 44.9142 75.9458H39.8259C39.2884 75.9458 39.0734 75.7666 39.0734 75.1933V44.9141C39.0734 44.4483 39.0734 44.1974 39.7184 44.1974H49.6084C51.9641 44.1199 54.3026 44.6246 56.4167 45.6666C58.0679 46.4486 59.4649 47.6805 60.4474 49.2207C61.4299 50.761 61.9579 52.5472 61.9709 54.3741C62.0941 55.7528 61.9387 57.1421 61.5139 58.4595C61.0891 59.7769 60.4037 60.9954 59.4984 62.0424ZM80.7834 57.4199C80.7834 57.9216 80.4967 58.0291 80.0667 58.0291C78.2891 57.9782 76.5201 58.2954 74.8709 58.9608L74.405 59.1758C73.9454 59.3222 73.5511 59.624 73.2896 60.0293C73.028 60.4346 72.9157 60.9183 72.9717 61.3974V75.0858C72.9717 75.9099 72.9717 75.9458 72.1475 75.9458H66.9517C66.1992 75.9458 66.1275 75.9458 66.1275 75.1216V56.5241C66.1275 55.1624 66.1275 53.8008 65.9484 52.4391C65.9484 51.9733 65.9484 51.7583 66.5575 51.7941H71.3234C71.44 51.7735 71.5597 51.7782 71.6743 51.808C71.789 51.8378 71.8958 51.8919 71.9876 51.9667C72.0795 52.0415 72.1541 52.1353 72.2064 52.2415C72.2587 52.3478 72.2875 52.464 72.2909 52.5824C72.2909 53.2991 72.5417 54.0516 72.6492 54.6608C73.7242 53.9083 74.7634 53.0841 75.91 52.4033C77.2076 51.6611 78.6794 51.2777 80.1742 51.2924C80.6042 51.2924 80.8192 51.2924 80.8192 51.9016L80.7834 57.4199Z" fill="#A828B1"/>
</svg>
