<svg width="119" height="119" viewBox="0 0 119 119" fill="none" xmlns="http://www.w3.org/2000/svg">
<circle cx="59.5" cy="59.5" r="59.5" fill="#EAD7FB"/>
<path d="M52.2601 61.4333C52.2601 61.7558 52.2601 61.7558 52.0092 61.7558H45.6667C46.8492 58.1725 48.1034 54.3741 49.2501 50.6475C49.2501 50.9341 49.2501 51.2208 49.5009 51.5075C49.7517 51.7941 49.8234 52.69 49.9667 53.2633L50.6117 55.27C50.6117 55.9508 51.0059 56.5958 51.2209 57.2766L51.9017 59.3191L52.2601 61.4333Z" fill="#A828B1"/>
<path d="M78.2034 59.1758C78.0044 58.5693 77.647 58.027 77.1683 57.6049C76.6895 57.1828 76.1067 56.8963 75.48 56.7749C74.8275 56.668 74.1618 56.668 73.5092 56.7749C73.0263 56.869 72.5703 57.0688 72.1738 57.36C71.7773 57.6511 71.4501 58.0265 71.2159 58.4591C70.8529 59.1027 70.6101 59.8069 70.4992 60.5374H77.9167C78.275 60.5374 78.3825 60.5374 78.3467 60.0358C78.3341 59.7443 78.286 59.4555 78.2034 59.1758ZM78.2034 59.1758C78.0044 58.5693 77.647 58.027 77.1683 57.6049C76.6895 57.1828 76.1067 56.8963 75.48 56.7749C74.8275 56.668 74.1618 56.668 73.5092 56.7749C73.0263 56.869 72.5703 57.0688 72.1738 57.36C71.7773 57.6511 71.4501 58.0265 71.2159 58.4591C70.8529 59.1027 70.6101 59.8069 70.4992 60.5374H77.9167C78.275 60.5374 78.3825 60.5374 78.3467 60.0358C78.3341 59.7443 78.286 59.4555 78.2034 59.1758ZM78.2034 59.1758C78.0044 58.5693 77.647 58.027 77.1683 57.6049C76.6895 57.1828 76.1067 56.8963 75.48 56.7749C74.8275 56.668 74.1618 56.668 73.5092 56.7749C73.0263 56.869 72.5703 57.0688 72.1738 57.36C71.7773 57.6511 71.4501 58.0265 71.2159 58.4591C70.8529 59.1027 70.6101 59.8069 70.4992 60.5374H77.9167C78.275 60.5374 78.3825 60.5374 78.3467 60.0358C78.3341 59.7443 78.286 59.4555 78.2034 59.1758ZM78.2034 59.1758C78.0044 58.5693 77.647 58.027 77.1683 57.6049C76.6895 57.1828 76.1067 56.8963 75.48 56.7749C74.8275 56.668 74.1618 56.668 73.5092 56.7749C73.0263 56.869 72.5703 57.0688 72.1738 57.36C71.7773 57.6511 71.4501 58.0265 71.2159 58.4591C70.8529 59.1027 70.6101 59.8069 70.4992 60.5374H77.9167C78.275 60.5374 78.3825 60.5374 78.3467 60.0358C78.3341 59.7443 78.286 59.4555 78.2034 59.1758ZM77.9167 24.1666H42.0834C37.3316 24.1666 32.7744 26.0543 29.4144 29.4143C26.0544 32.7743 24.1667 37.3315 24.1667 42.0833V77.9166C24.1667 82.6684 26.0544 87.2255 29.4144 90.5856C32.7744 93.9456 37.3316 95.8332 42.0834 95.8332H77.9167C82.6685 95.8332 87.2257 93.9456 90.5857 90.5856C93.9457 87.2255 95.8334 82.6684 95.8334 77.9166V42.0833C95.8334 37.3315 93.9457 32.7743 90.5857 29.4143C87.2257 26.0543 82.6685 24.1666 77.9167 24.1666ZM62.6159 74.3333H56.8109C56.7114 74.3483 56.6097 74.3332 56.519 74.2897C56.4282 74.2463 56.3527 74.1765 56.3021 74.0896C56.2684 74.0324 56.2465 73.969 56.2376 73.9033C55.9509 73.0074 55.6284 72.1474 55.3417 71.2516C55.0551 70.3558 54.6251 69.2091 54.3026 68.1699C54.3026 67.5966 53.8367 67.5249 53.3351 67.5249H44.3051C43.9109 67.5249 43.9109 67.5249 43.7676 67.9549C43.6242 68.3849 43.4092 69.1374 43.1942 69.7466L42.6209 71.6099L41.8684 73.7958C41.8877 73.8903 41.8877 73.9878 41.8684 74.0824C41.8684 74.5483 41.2951 74.4766 40.9367 74.4766H36.3142C35.7767 74.4766 35.5976 74.2258 35.8126 73.7241C36.0276 73.2224 36.2067 72.6491 36.3859 72.1474L37.1384 69.8541L38.5359 65.9124C38.9301 64.8374 39.2884 63.7266 39.6467 62.6158C40.0051 61.5049 40.3276 60.7166 40.6859 59.7491L41.4384 57.4916L42.7642 53.9083L43.8392 50.7549C44.1976 49.7516 44.5559 48.7483 44.8784 47.7091C44.9287 47.2207 44.9287 46.7284 44.8784 46.2399C44.8784 45.4874 44.8784 45.4874 45.6309 45.4874H52.1167C52.6901 45.4874 52.6542 45.4874 52.8334 46.0249C53.0126 46.5624 53.4784 47.7808 53.7651 48.6408C54.0517 49.5008 54.3026 50.1458 54.5534 50.8624L55.4134 53.1916L56.2734 55.6999C56.6317 56.6674 56.9901 57.5991 57.3126 58.5666L58.2442 61.1466C58.5309 62.0066 58.8534 62.8666 59.1759 63.7624C59.4984 64.6583 59.6059 65.0883 59.8567 65.7333C60.1076 66.3783 60.3584 67.1666 60.6451 67.8833C60.9317 68.5999 61.1109 69.2449 61.3617 69.9258L62.4009 72.8283L62.8309 74.0824C62.9742 74.0466 62.8667 74.3333 62.6159 74.3333ZM84.1159 63.5833C84.1326 63.9058 84.1326 64.2283 84.1159 64.5508C84.1159 64.8733 83.5784 64.9808 83.2559 64.9808H70.6067C70.7357 66.1561 71.2517 67.2526 72.0759 68.0983C73.569 69.0154 75.2638 69.5536 77.0125 69.666C78.7612 69.7784 80.5109 69.4616 82.1092 68.7433C82.3959 68.7433 82.5392 68.7433 82.5392 69.0299V73.0791C82.5392 73.7241 82.2884 73.7958 81.7509 74.0108L80.4609 74.4049C80.0511 74.5257 79.6314 74.6097 79.2067 74.6558C78.3109 74.6558 77.415 74.9066 76.5192 74.9424C75.6234 74.9783 75.3009 74.9424 74.6917 74.9424H74.3334C73.6167 74.9424 72.8642 74.9424 72.1834 74.6916C70.2068 74.2969 68.4028 73.2947 67.0234 71.8249C66.1484 70.9202 65.4657 69.8475 65.0167 68.6716C64.6542 67.8134 64.413 66.9089 64.3 65.9841C64.2486 64.9336 64.2486 63.8812 64.3 62.8308C64.3538 61.5372 64.5975 60.2579 65.0167 59.0324C65.3691 58.0125 65.8637 57.0474 66.4859 56.1658C67.3023 54.9355 68.4102 53.9261 69.7109 53.2274C70.2723 52.9025 70.8575 52.6278 71.4667 52.4033C72.1283 52.2458 72.7982 52.1262 73.4734 52.0449C74.0825 52.0091 74.6917 52.0091 75.3009 52.0449C76.1991 52.0593 77.083 52.1787 77.9525 52.4033C78.7409 52.6254 79.4934 52.936 80.21 53.3349C81.3136 53.9678 82.2288 54.883 82.8617 55.9866C83.22 56.6316 83.5067 57.2766 83.7934 57.9216C83.9463 58.3779 84.0657 58.8437 84.1517 59.3191C84.472 60.719 84.5086 62.169 84.2592 63.5833H84.1159ZM75.3367 56.9541C74.6841 56.8471 74.0185 56.8471 73.3659 56.9541C72.883 57.0481 72.4269 57.2479 72.0304 57.5391C71.6339 57.8303 71.3068 58.2057 71.0725 58.6383C70.7096 59.2818 70.4668 59.9861 70.3559 60.7166H77.9167C78.275 60.7166 78.3825 60.7166 78.3467 60.2149C78.317 59.8962 78.2447 59.5828 78.1317 59.2833C77.955 58.6659 77.6157 58.1074 77.1492 57.6662C76.6827 57.2249 76.1062 56.9171 75.48 56.7749L75.3367 56.9541ZM78.06 59.3549C77.8611 58.7485 77.5037 58.2062 77.0249 57.7841C76.5462 57.362 75.9633 57.0755 75.3367 56.9541C74.6841 56.8471 74.0185 56.8471 73.3659 56.9541C72.883 57.0481 72.4269 57.2479 72.0304 57.5391C71.6339 57.8303 71.3068 58.2057 71.0725 58.6383C70.7096 59.2818 70.4668 59.9861 70.3559 60.7166H77.9167C78.275 60.7166 78.3825 60.7166 78.3467 60.2149C78.3467 59.8614 78.2989 59.515 78.2034 59.1758L78.06 59.3549ZM78.06 59.3549C77.8611 58.7485 77.5037 58.2062 77.0249 57.7841C76.5462 57.362 75.9633 57.0755 75.3367 56.9541C74.6841 56.8471 74.0185 56.8471 73.3659 56.9541C72.883 57.0481 72.4269 57.2479 72.0304 57.5391C71.6339 57.8303 71.3068 58.2057 71.0725 58.6383C70.7096 59.2818 70.4668 59.9861 70.3559 60.7166H77.9167C78.275 60.7166 78.3825 60.7166 78.3467 60.2149C78.3467 59.8614 78.2989 59.515 78.2034 59.1758L78.06 59.3549ZM78.06 59.3549C77.8611 58.7485 77.5037 58.2062 77.0249 57.7841C76.5462 57.362 75.9633 57.0755 75.3367 56.9541C74.6841 56.8471 74.0185 56.8471 73.3659 56.9541C72.883 57.0481 72.4269 57.2479 72.0304 57.5391C71.6339 57.8303 71.3068 58.2057 71.0725 58.6383C70.7096 59.2818 70.4668 59.9861 70.3559 60.7166H77.9167C78.275 60.7166 78.3825 60.7166 78.3467 60.2149C78.3467 59.8614 78.2989 59.515 78.2034 59.1758L78.06 59.3549ZM78.06 59.3549C77.8611 58.7485 77.5037 58.2062 77.0249 57.7841C76.5462 57.362 75.9633 57.0755 75.3367 56.9541C74.6841 56.8471 74.0185 56.8471 73.3659 56.9541C72.883 57.0481 72.4269 57.2479 72.0304 57.5391C71.6339 57.8303 71.3068 58.2057 71.0725 58.6383C70.7096 59.2818 70.4668 59.9861 70.3559 60.7166H77.9167C78.275 60.7166 78.3825 60.7166 78.3467 60.2149C78.3467 59.8614 78.2989 59.515 78.2034 59.1758L78.06 59.3549Z" fill="#A828B1"/>
</svg>
