<svg width="119" height="119" viewBox="0 0 119 119" fill="none" xmlns="http://www.w3.org/2000/svg">
<circle cx="59.5" cy="59.5" r="59.5" fill="#EAD7FB"/>
<path d="M95.364 64.2032C95.2565 64.2032 95.149 64.2749 95.0774 64.454C94.3571 66.536 93.3502 67.7937 92.526 67.7937C92.0602 67.7937 91.881 67.2562 91.881 66.4679C91.881 64.4182 93.0994 60.0716 93.7085 58.0614C93.7802 57.8105 93.816 57.5956 93.816 57.4164C93.816 56.8395 93.4935 56.5492 92.7052 56.5492C91.881 56.5492 90.9458 56.8717 90.0822 58.4197C89.7955 57.0545 88.8639 56.4776 87.5667 56.4776C86.0975 56.4776 84.657 57.4486 83.4745 58.993C82.2885 60.5375 80.8874 61.0427 79.8446 60.7883C80.5971 58.9608 80.8838 57.5561 80.8838 56.5492C80.8838 54.9367 80.0954 53.9656 78.8054 53.9656C76.8633 53.9656 75.7489 55.8326 75.7489 57.7711C75.7489 59.2797 76.4297 60.8241 77.9419 61.5802C76.6841 64.4182 74.853 67.0054 74.1328 67.0054C73.2369 67.0054 72.9503 62.5871 73.0219 59.423C73.0578 57.6314 73.2011 57.5239 73.2011 56.9828C73.2011 56.6603 72.9861 56.4453 72.1584 56.4453C70.252 56.4453 69.6429 58.0578 69.5712 59.9283C69.5354 60.645 69.4279 61.3258 69.2487 62.0102C68.4604 64.8482 66.8049 67.0412 65.7263 67.0412C65.2246 67.0412 65.0813 66.5395 65.0813 65.891C65.0813 63.8413 66.2279 61.2577 66.2279 59.0647C66.2279 57.4522 65.5113 56.4417 64.1854 56.4417C62.6016 56.4417 60.5555 58.3122 58.5811 61.7952C59.2261 59.1364 59.4769 56.5528 57.5742 56.5528C57.1442 56.5528 56.7488 56.6603 56.3881 56.8753C56.266 56.9318 56.1634 57.0233 56.0933 57.1381C56.0231 57.2529 55.9886 57.3859 55.9939 57.5203C56.1731 60.3583 53.6934 67.6504 51.3607 67.6504C50.9307 67.6504 50.7157 67.1845 50.7157 66.432C50.7157 64.3824 51.934 60.0358 52.5432 58.022C52.6102 57.8011 52.6463 57.5719 52.6507 57.3411C52.6507 56.8036 52.3282 56.517 51.5398 56.517C50.7157 56.517 49.7804 56.8395 48.9168 58.3803C48.5943 57.0186 47.6985 56.4453 46.4013 56.4453C44.2836 56.4453 41.9473 58.667 40.9045 61.5802C39.507 65.461 36.7407 69.2306 32.9674 69.2306C29.5561 69.2306 27.7573 66.3926 27.7573 61.9027C27.7573 55.4026 32.5374 50.1207 36.0563 50.1207C37.744 50.1207 38.5359 51.1957 38.5359 52.8512C38.5359 54.8615 37.4251 55.7609 37.4251 56.5492C37.4251 56.7642 37.6043 57.015 37.9984 57.015C39.5393 57.015 41.3381 55.2234 41.3381 52.7437C41.3381 50.2641 39.3959 48.5046 35.8771 48.5046C30.0219 48.5046 24.1667 54.3598 24.1667 61.9063C24.1667 67.9012 27.1122 71.4953 32.2149 71.4953C35.6979 71.4953 38.7509 68.8006 40.367 65.6401C40.5462 68.2631 41.7323 69.6248 43.5633 69.6248C45.1794 69.6248 46.473 68.6573 47.4799 66.9695C47.8741 68.7254 48.8774 69.589 50.2104 69.589C51.7154 69.589 53.0126 68.6215 54.1951 66.862C54.1951 68.2595 54.4818 69.589 55.7073 69.589C56.2806 69.589 56.9614 69.4456 57.0689 68.944C58.3625 63.6621 61.5266 59.3155 62.4941 59.3155C62.7808 59.3155 62.8524 59.6022 62.8524 59.9247C62.8524 61.3652 61.8491 64.3107 61.8491 66.1776C61.8491 68.2273 62.7091 69.5531 64.5079 69.5531C66.4824 69.5531 68.4926 67.1487 69.822 63.5905C70.252 66.8979 71.1514 69.5531 72.5525 69.5531C74.2761 69.5531 77.4008 65.891 79.2713 62.0102C79.9879 62.1177 81.1024 62.0819 82.181 61.3294C81.7151 62.476 81.4643 63.7338 81.4643 64.9557C81.4643 68.5498 83.1843 69.5531 84.657 69.5531C86.2731 69.5531 87.5667 68.5856 88.5736 66.8979C88.8961 68.4029 89.7561 69.5173 91.3041 69.5173C93.7121 69.5173 95.8299 67.0412 95.8299 64.9915C95.8657 64.5615 95.6149 64.2032 95.364 64.2032ZM45.0719 67.6145C44.1044 67.6145 43.7103 66.647 43.7103 65.1707C43.7103 62.623 45.4661 58.348 47.3008 58.348C48.0891 58.348 48.4116 59.2797 48.4116 60.4658C48.4116 63.053 46.7633 67.6145 45.0719 67.6145ZM78.5869 60C78.0135 59.3191 77.7985 58.348 77.7985 57.5203C77.7985 56.4811 78.1927 55.6176 78.6227 55.6176C79.0527 55.6176 79.2319 56.0475 79.2319 56.6925C79.196 57.6995 78.8377 59.2439 78.5869 60ZM86.1656 67.6145C85.1981 67.6145 84.804 66.4679 84.804 65.1707C84.804 62.6946 86.5598 58.348 88.3944 58.348C89.1828 58.348 89.4695 59.2797 89.4695 60.4658C89.5053 63.053 87.8928 67.6145 86.1656 67.6145Z" fill="#A828B1"/>
</svg>
