<svg width="119" height="119" viewBox="0 0 119 119" fill="none" xmlns="http://www.w3.org/2000/svg">
<circle cx="59.5" cy="59.5" r="59.5" fill="#EAD7FB"/>
<path d="M95.8299 60.1576C95.8838 66.449 94.2465 72.6394 91.0891 78.0814C87.9339 83.5176 83.3774 88.0072 77.8953 91.0818C72.5043 94.2122 66.388 95.8774 60.1542 95.9121C53.8916 95.8725 47.7487 94.1922 42.3378 91.0388C36.9221 87.8839 32.4256 83.3676 29.2945 77.9381C26.058 72.5625 24.2897 66.4312 24.1667 60.1576C24.1667 53.8581 25.833 47.6697 28.9863 42.2195C32.1174 36.79 36.614 32.2737 42.0297 29.1188C47.4395 25.966 53.5811 24.2857 59.8424 24.2455C68.4675 24.2813 76.7916 27.4203 83.2954 33.0963C83.531 33.3166 83.7189 33.5829 83.8474 33.8788C83.9758 34.1746 84.0421 34.4938 84.0421 34.8163C84.0421 35.1389 83.9758 35.458 83.8474 35.7539C83.7189 36.0497 83.531 36.3161 83.2954 36.5363L76.659 43.187C76.2287 43.5698 75.6727 43.7813 75.0967 43.7813C74.5207 43.7813 73.9648 43.5698 73.5344 43.187C69.7772 40.0314 65.0592 38.246 60.1542 38.1237C56.3232 38.1147 52.5584 39.1226 49.2445 41.0446C45.9305 42.9667 43.1861 45.7339 41.2915 49.0636C39.2826 52.4183 38.2041 56.2477 38.1668 60.1576C38.1847 63.9887 39.2091 67.7477 41.1374 71.0581C43.0642 74.3815 45.8409 77.1322 49.1823 79.0277C52.5237 80.9233 56.3094 81.8953 60.1506 81.8439C63.9723 81.8389 67.725 80.8253 71.0296 78.9056C75.2725 76.3641 78.5547 72.4897 80.3642 67.8869H64.0099C63.7021 67.8874 63.3973 67.8265 63.1134 67.7076C62.8295 67.5888 62.5722 67.4144 62.3565 67.1948C62.1409 66.9752 61.9713 66.7147 61.8577 66.4287C61.7441 66.1426 61.6888 65.8368 61.695 65.529V56.2912C61.6897 55.9856 61.7459 55.682 61.8603 55.3986C61.9747 55.1151 62.145 54.8576 62.3609 54.6413C62.5769 54.4249 62.8342 54.2543 63.1175 54.1395C63.4008 54.0246 63.7042 53.9679 64.0099 53.9728H93.2069C93.76 53.9644 94.2978 54.1547 94.7226 54.5091C95.1473 54.8635 95.4309 55.3585 95.5217 55.9042C95.7511 57.3137 95.8538 58.7315 95.8299 60.1576Z" fill="#A828B1"/>
</svg>
