<svg width="119" height="119" viewBox="0 0 119 119" fill="none" xmlns="http://www.w3.org/2000/svg">
<circle cx="59.5" cy="59.5" r="59.5" fill="#EAD7FB"/>
<path d="M55.7 60L38.5 68.9583C38.5 73.1795 38.5 73.502 39.7613 74.8135C41.0191 76.125 43.0473 76.125 47.1036 76.125H64.3036C68.3599 76.125 70.3881 76.125 71.6494 74.8135C72.9108 73.502 72.9072 73.1795 72.9072 68.9583M55.7 60L81.5 46.5625M55.7 60L38.5 51.0417C38.5 46.8169 38.5 46.498 39.7613 45.1865C41.0191 43.875 43.0472 43.875 47.1 43.875H64.3C68.3563 43.875 70.3845 43.875 71.6458 45.1865C72.9072 46.498 72.9036 46.8169 72.9036 51.0417M55.7 60L81.5 73.4375" stroke="#A828B1" stroke-width="7.05188" stroke-linecap="round" stroke-linejoin="round"/>
<path d="M25.9512 60C25.9512 43.9539 25.9512 35.9272 30.9356 30.9428C35.92 25.9584 43.9467 25.9584 59.9928 25.9584C76.039 25.9584 84.0621 25.9584 89.0501 30.9428C94.0309 35.9272 94.0309 43.9503 94.0309 60C94.0309 76.0462 94.0309 84.0693 89.0501 89.0573C84.0621 94.0381 76.0426 94.0381 59.9892 94.0381C43.9431 94.0381 35.92 94.0381 30.9356 89.0573C25.9512 84.0693 25.9512 76.0498 25.9512 59.9964" stroke="#A828B1" stroke-width="7.05188" stroke-linecap="round" stroke-linejoin="round"/>
</svg>
