<?xml version="1.0" encoding="UTF-8"?>
<svg id="Layer_1" xmlns="http://www.w3.org/2000/svg" version="1.1" viewBox="0 0 800 800">
  <!-- Generator: Adobe Illustrator 29.7.1, SVG Export Plug-In . SVG Version: 2.1.1 Build 8)  -->
  <defs>
    <style>
      .st0 {
        fill: #fff;
      }
    </style>
  </defs>
  <rect class="st0" x="115.8" y="293.9" width="131.8" height="417.9" rx="21.1" ry="21.1"/>
  <circle class="st0" cx="181.7" cy="173.3" r="85.2"/>
  <path class="st0" d="M716,692.5c0,10.7-8.7,19.4-19.4,19.4h-96.2c-10.7,0-19.4-8.7-19.4-19.4v-176.3c0-26.3,7.7-115.2-68.7-115.2s-71.3,60.9-73.7,88.2v203.3c0,10.7-8.7,19.4-19.4,19.4h-93c-10.7,0-19.4-8.7-19.4-19.4v-379.2c0-10.7,8.7-19.4,19.4-19.4h93c10.7,0,19.4,8.7,19.4,19.4v32.8c22-33,54.7-58.5,124.2-58.5,154,0,153.2,143.9,153.2,223v181.9h0Z"/>
</svg>