<?xml version="1.0" encoding="utf-8"?>
<!-- Generator: Adobe Illustrator 29.7.1, SVG Export Plug-In . SVG Version: 9.03 Build 0)  -->
<svg version="1.0" id="Capa_1" xmlns="http://www.w3.org/2000/svg" xmlns:xlink="http://www.w3.org/1999/xlink" x="0px" y="0px"
	 viewBox="0 0 300 40" style="enable-background:new 0 0 300 40;" xml:space="preserve">
<style type="text/css">
	.st0{clip-path:url(#SVGID_00000085222955926240167990000004527445601191251336_);}
	.st1{clip-path:url(#SVGID_00000144308555725600135080000014736870374594674872_);}
	.st2{clip-path:url(#SVGID_00000150816772380026211700000004280901452112866751_);}
	.st3{fill:#FCA17D;}
	.st4{clip-path:url(#SVGID_00000121991782789905815030000011972002687163976878_);}
	.st5{clip-path:url(#SVGID_00000163047337099016528640000005774628276789660078_);}
	.st6{clip-path:url(#SVGID_00000088841377572219478600000002995424178561496986_);}
	.st7{fill:#EAD7FB;}
	.st8{clip-path:url(#SVGID_00000166661217075157109250000006849780572239354792_);}
	.st9{clip-path:url(#SVGID_00000042735578722360428840000000863638063620793520_);}
	.st10{clip-path:url(#SVGID_00000139256654892727551170000013068645676056208531_);}
</style>
<g>
	<defs>
		<rect id="SVGID_1_" x="8.1" y="6.9" width="28" height="28"/>
	</defs>
	<clipPath id="SVGID_00000046332352001857078250000010743204307742099851_">
		<use xlink:href="#SVGID_1_"  style="overflow:visible;"/>
	</clipPath>
	<g style="clip-path:url(#SVGID_00000046332352001857078250000010743204307742099851_);">
		<g>
			<defs>
				
					<rect id="SVGID_00000102531518249391957780000015332382329927552133_" x="9.1" y="7.9" transform="matrix(0.4235 -0.9059 0.9059 0.4235 -5.9981 31.4741)" width="25.2" height="25.2"/>
			</defs>
			<clipPath id="SVGID_00000149356874452991081510000005719716738177217463_">
				<use xlink:href="#SVGID_00000102531518249391957780000015332382329927552133_"  style="overflow:visible;"/>
			</clipPath>
			<g style="clip-path:url(#SVGID_00000149356874452991081510000005719716738177217463_);">
				<g>
					<defs>
						
							<rect id="SVGID_00000152977120819077506930000011512085323691572101_" x="9.1" y="7.9" transform="matrix(0.4235 -0.9059 0.9059 0.4235 -5.9981 31.4741)" width="25.2" height="25.2"/>
					</defs>
					<clipPath id="SVGID_00000157291018948650243760000007464062758396936125_">
						<use xlink:href="#SVGID_00000152977120819077506930000011512085323691572101_"  style="overflow:visible;"/>
					</clipPath>
					<g style="clip-path:url(#SVGID_00000157291018948650243760000007464062758396936125_);">
						<path class="st3" d="M31.3,29.7c-0.6-1.4-1.7-3.8-3.4-6.3c3-0.5,5.5-1.3,6.9-1.8c0.6-0.2,0.6-1,0-1.2
							c-1.4-0.6-3.8-1.5-6.8-2.1c1.8-2.5,3-4.8,3.6-6.2c0.2-0.5-0.3-1.1-0.8-0.9c-1.4,0.6-3.8,1.7-6.3,3.4c-0.5-3-1.3-5.5-1.8-6.9
							c-0.2-0.6-1-0.6-1.2,0c-0.6,1.4-1.5,3.8-2.1,6.8c-2.5-1.8-4.8-3-6.2-3.6c-0.5-0.2-1.1,0.3-0.9,0.8c0.6,1.4,1.7,3.7,3.4,6.3
							c-3,0.5-5.5,1.3-6.9,1.8c-0.6,0.2-0.6,1,0,1.2c1.4,0.6,3.8,1.5,6.8,2.1c-1.8,2.5-3,4.8-3.6,6.2c-0.2,0.5,0.3,1.1,0.8,0.9
							c1.4-0.6,3.8-1.7,6.3-3.4c0.5,3,1.3,5.5,1.8,6.9c0.2,0.6,1,0.6,1.2,0c0.6-1.4,1.5-3.8,2.1-6.8c2.5,1.8,4.8,3,6.2,3.6
							C30.9,30.8,31.5,30.2,31.3,29.7z M20.7,23.1c-1.3-0.6-1.9-2.2-1.3-3.5c0.6-1.3,2.2-1.9,3.5-1.3c1.3,0.6,1.9,2.2,1.3,3.5
							C23.6,23.1,22,23.7,20.7,23.1z"/>
					</g>
				</g>
			</g>
		</g>
	</g>
</g>
<g>
	<defs>
		<rect id="SVGID_00000016791306377121252930000002277900944087061633_" x="49.4" y="1.5" width="200" height="38.7"/>
	</defs>
	<clipPath id="SVGID_00000034801447104337713990000007785360181769332364_">
		<use xlink:href="#SVGID_00000016791306377121252930000002277900944087061633_"  style="overflow:visible;"/>
	</clipPath>
	<g style="clip-path:url(#SVGID_00000034801447104337713990000007785360181769332364_);">
		<g transform="matrix(1, 0, 0, 1, 37, 0.000000000000005692)">
			<g>
				<defs>
					<rect id="SVGID_00000160152287428150358200000002549238987446517918_" x="12.4" y="1.5" width="200" height="40"/>
				</defs>
				<clipPath id="SVGID_00000008143373301659292280000003614452009652320173_">
					<use xlink:href="#SVGID_00000160152287428150358200000002549238987446517918_"  style="overflow:visible;"/>
				</clipPath>
				<g style="clip-path:url(#SVGID_00000008143373301659292280000003614452009652320173_);">
					<g>
						<defs>
							<rect id="SVGID_00000074439618130037832660000004717740515632065924_" x="13.1" y="5.5" width="23.4" height="24"/>
						</defs>
						<clipPath id="SVGID_00000084530727862200112020000016583264559636221069_">
							<use xlink:href="#SVGID_00000074439618130037832660000004717740515632065924_"  style="overflow:visible;"/>
						</clipPath>
						<g style="clip-path:url(#SVGID_00000084530727862200112020000016583264559636221069_);">
							<g>
								<g transform="translate(0.763017, 20.301824)">
									<g>
										<path class="st7" d="M18.2,2.6l-0.7,1.7c-0.3,0.7-0.4,1.1-0.3,1.5c0.1,0.3,0.2,0.6,0.3,0.7c0.2,0.2,0.4,0.3,0.5,0.4
											c0.2,0.1,0.3,0.3,0.3,0.6c0,0.3-0.1,0.5-0.4,0.6c-0.2,0.1-0.6,0.2-0.9,0.2h-2.8c-0.5,0-0.8-0.1-1.1-0.2
											c-0.3-0.1-0.4-0.3-0.4-0.6c0-0.3,0.1-0.5,0.3-0.6c0.2-0.1,0.4-0.3,0.7-0.4c0.3-0.2,0.6-0.4,0.9-0.7
											c0.3-0.3,0.6-0.8,0.8-1.5l6-15c0.2-0.5,0.2-0.9,0.1-1.1c-0.1-0.3-0.2-0.5-0.4-0.6c-0.2-0.2-0.4-0.3-0.6-0.5
											c-0.2-0.2-0.3-0.4-0.3-0.7c0-0.5,0.3-0.8,1-0.8h3.3c0.5,0,0.8,0.2,1,0.7l7,17.9c0.3,0.7,0.5,1.2,0.8,1.5
											c0.3,0.3,0.5,0.6,0.8,0.7c0.2,0.1,0.4,0.3,0.6,0.4C34.9,7,35,7.2,35,7.5c0,0.3-0.1,0.5-0.4,0.6c-0.2,0.1-0.7,0.2-1.3,0.2
											h-4.5c-0.9,0-1.4-0.2-1.4-0.8c0-0.3,0.1-0.5,0.3-0.7c0.2-0.2,0.4-0.3,0.6-0.5c0.2-0.2,0.4-0.4,0.4-0.7
											c0.1-0.3,0-0.8-0.3-1.4l-0.6-1.6c-0.1-0.2-0.2-0.4-0.3-0.6c-0.1-0.2-0.3-0.2-0.6-0.3c-0.3-0.1-0.7-0.1-1.3-0.1
											c-0.6,0-1.5,0-2.6,0c-1.1,0-2,0-2.6,0c-0.6,0-1.1,0.1-1.4,0.1c-0.3,0-0.5,0.1-0.6,0.3C18.3,2.2,18.3,2.4,18.2,2.6z
											 M23.1,0c1.2,0,2.1,0,2.6,0c0.5,0,0.8-0.1,0.9-0.2c0.1-0.1,0-0.3-0.1-0.6L23-9.8l-3.5,8.9c-0.1,0.3-0.1,0.5-0.1,0.6
											c0.1,0.1,0.4,0.2,0.9,0.2C20.9,0,21.8,0,23.1,0z"/>
									</g>
								</g>
							</g>
						</g>
					</g>
					<g>
						<g transform="translate(17.753012, 20.301824)">
							<g>
								<path class="st7" d="M31.4,5.8c1.5,0,2.7,0.4,3.5,1.1c0.8,0.7,1.2,1.6,1.2,2.6c0,1.6-0.8,3-2.5,4c-1.6,1-3.9,1.6-6.8,1.6
									c-1.2,0-2.3-0.1-3.5-0.4c-1.1-0.3-2.1-0.7-2.8-1.3c-0.7-0.6-1.1-1.3-1.1-2.3c0-0.5,0.2-1,0.5-1.5c0.4-0.5,0.9-0.9,1.6-1.2
									c-0.5-0.3-1-0.6-1.4-1.1c-0.4-0.5-0.6-1-0.6-1.7c0-0.5,0.2-1,0.6-1.6s1-1,2-1.4c-1.5-0.9-2.2-2.3-2.2-4c0-1.1,0.3-2.2,1-3.1
									c0.7-0.9,1.6-1.7,2.7-2.2c1.1-0.6,2.4-0.8,3.8-0.9h0.5c0.5,0,0.8,0.1,1.1,0.1c0.2,0,0.5,0,0.8,0c0.4,0,0.8-0.1,1.2-0.4
									c0.5-0.3,1-0.7,1.4-1.4c0.2-0.2,0.3-0.4,0.5-0.5c0.2-0.1,0.4-0.2,0.7-0.2c0.3,0,0.6,0.1,0.9,0.4c0.3,0.2,0.4,0.5,0.4,0.9
									C34.9-8,34.6-7.4,34-7c-0.6,0.4-1.2,0.7-2,0.9c1.2,1,1.8,2.2,1.8,3.8c0,1.1-0.3,2.2-0.9,3.1c-0.6,0.9-1.4,1.6-2.5,2.1
									c-1.1,0.5-2.3,0.8-3.8,0.8c-1.2,0-2.3-0.2-3.2-0.5c-0.2,0.1-0.4,0.3-0.5,0.5c-0.2,0.2-0.2,0.4-0.2,0.7c0,0.7,0.3,1.1,1,1.4
									c0.7,0.2,1.4,0.3,2.3,0.3c0.9,0,1.9,0,2.9-0.1C29.9,5.9,30.8,5.8,31.4,5.8z M26.7-6c-0.9,0-1.7,0.3-2.3,1
									c-0.6,0.7-0.9,1.5-0.9,2.6c0,0.8,0.2,1.6,0.5,2.3c0.3,0.7,0.7,1.3,1.2,1.7c0.6,0.4,1.2,0.6,2,0.6c1,0,1.7-0.3,2.2-1
									c0.6-0.7,0.8-1.5,0.8-2.6c0-0.8-0.1-1.5-0.4-2.2c-0.3-0.7-0.7-1.3-1.2-1.7C28.1-5.8,27.5-6,26.7-6z M27.6,13.5
									c1.6,0,2.8-0.2,3.7-0.7c0.9-0.5,1.4-1.1,1.4-2c0-0.4-0.2-0.9-0.5-1.2c-0.3-0.4-1-0.6-2.1-0.5c-0.7,0-1.5,0.1-2.3,0.1
									c-0.8,0.1-1.7,0.1-2.7,0.1c-0.6,0-1.1,0.1-1.6,0.4c-0.5,0.3-0.7,0.8-0.7,1.4c0,0.8,0.4,1.4,1.4,1.9
									C25,13.3,26.2,13.5,27.6,13.5z"/>
							</g>
						</g>
					</g>
					<g>
						<g transform="translate(31.325618, 20.301824)">
							<g>
								<path class="st7" d="M40.2-6.7l0,4.5v6c0,0.6,0.1,1,0.3,1.3c0.2,0.3,0.4,0.5,0.6,0.6c0.2,0.1,0.5,0.2,0.7,0.3
									C41.9,6.1,42,6.3,42,6.5c0,0.3-0.3,0.7-0.9,1.1c-0.4,0.2-1,0.5-1.7,0.7c-0.7,0.2-1.2,0.4-1.6,0.4c-0.4,0-0.7-0.2-0.9-0.5
									c-0.2-0.3-0.3-0.8-0.3-1.4l0-1.1c-0.7,0.9-1.5,1.6-2.5,2.1c-1,0.5-1.9,0.8-2.8,0.8c-1.7,0-3-0.5-4-1.6
									c-1-1.1-1.5-2.7-1.5-4.9l0-4.4c0-0.6-0.1-1.1-0.2-1.4C25.4-4,25.2-4.2,25-4.4c-0.2-0.2-0.4-0.3-0.5-0.4
									c-0.2-0.1-0.2-0.3-0.2-0.6c0-0.2,0.1-0.4,0.2-0.5c0.1-0.1,0.4-0.3,0.8-0.5c0.7-0.3,1.4-0.6,2.1-0.8c0.7-0.2,1.2-0.4,1.5-0.4
									c0.5,0,0.7,0.2,0.7,0.8l0,4.5v4.1c0,1.3,0.2,2.4,0.7,3.2c0.5,0.8,1.2,1.2,2.3,1.2c0.7,0,1.3-0.2,1.9-0.6
									c0.6-0.4,1.1-1,1.5-1.7c0.4-0.7,0.6-1.6,0.6-2.5v-3.7c0-0.6-0.1-1.1-0.2-1.4c-0.2-0.3-0.4-0.6-0.6-0.7
									c-0.2-0.2-0.4-0.3-0.5-0.4c-0.2-0.1-0.2-0.3-0.2-0.6c0-0.2,0.1-0.4,0.2-0.5c0.1-0.1,0.4-0.3,0.8-0.5
									c0.7-0.3,1.4-0.6,2.1-0.8c0.7-0.2,1.2-0.4,1.5-0.4C39.9-7.6,40.2-7.3,40.2-6.7z"/>
							</g>
						</g>
					</g>
					<g>
						<g transform="translate(46.691747, 20.301824)">
							<g>
								<path class="st7" d="M31.5,8.6c-0.2,0-0.4-0.1-0.6-0.2c-0.1-0.2-0.3-0.5-0.5-1c-0.2-0.6-0.5-1.2-0.6-1.7
									c-0.2-0.5-0.4-1.1-0.5-1.7c-0.1-0.6,0-0.9,0.4-1c0.2-0.1,0.4-0.1,0.7,0c0.2,0.1,0.5,0.3,0.8,0.6c1.2,1.2,2.2,2,3.1,2.5
									c0.9,0.5,1.9,0.7,2.8,0.7c0.6,0,1.2-0.2,1.6-0.5c0.4-0.3,0.7-0.8,0.7-1.4c0-0.6-0.4-1.2-1.2-1.7c-0.8-0.5-1.9-1-3.2-1.6
									c-0.9-0.4-1.7-0.8-2.5-1.2s-1.4-0.9-1.9-1.5c-0.5-0.6-0.7-1.4-0.7-2.2c0-1,0.3-1.8,0.8-2.5c0.5-0.7,1.2-1.2,2-1.5
									c0.8-0.3,1.6-0.5,2.4-0.5c0.9,0,1.6,0.1,2.2,0.2c0.6,0.1,1.1,0.2,1.6,0.2c0.3,0,0.5,0,0.6-0.2c0.1-0.2,0.3-0.2,0.5-0.2
									c0.2,0,0.4,0.1,0.6,0.3C40.6-7,40.7-6.8,41-6.4c0.2,0.4,0.4,0.8,0.6,1.1c0.1,0.3,0.2,0.6,0.4,0.9c0.3,0.7,0.2,1.1-0.1,1.3
									c-0.3,0.1-0.6,0.1-0.9-0.1c-0.3-0.2-0.7-0.5-1.3-1C39-4.6,38.3-5,37.5-5.3c-0.8-0.4-1.5-0.6-2.2-0.6c-0.8,0-1.4,0.2-1.8,0.5
									c-0.4,0.3-0.6,0.8-0.6,1.2c0,0.6,0.4,1.2,1.1,1.6c0.7,0.4,1.8,0.9,3.2,1.5c1.1,0.5,2.1,0.9,2.9,1.4c0.8,0.5,1.5,1,2,1.6
									c0.5,0.6,0.7,1.3,0.7,2.1c0,0.9-0.3,1.6-0.8,2.4c-0.5,0.7-1.2,1.2-2.1,1.7C39,8.4,38,8.6,36.8,8.6c-1.2,0-2-0.1-2.6-0.3
									C33.6,8.1,33.1,8,32.8,8c-0.2,0-0.5,0.1-0.6,0.3C32,8.5,31.8,8.6,31.5,8.6z"/>
							</g>
						</g>
					</g>
					<g>
						<g transform="translate(58.616253, 20.301824)">
						</g>
					</g>
					<g>
						<g transform="translate(63.463616, 20.301824)">
							<g>
								<path class="st7" d="M58.7-10.4l0.5,14.3c0,0.7,0.1,1.2,0.3,1.5c0.2,0.3,0.4,0.6,0.7,0.8c0.3,0.2,0.5,0.3,0.7,0.5
									c0.2,0.2,0.3,0.4,0.3,0.8c0,0.3-0.1,0.5-0.4,0.6c-0.2,0.1-0.7,0.2-1.2,0.2h-4.2c-0.6,0-1.1-0.1-1.3-0.2
									c-0.3-0.1-0.4-0.3-0.4-0.6c0-0.3,0.1-0.6,0.3-0.8c0.2-0.2,0.4-0.3,0.6-0.5C54.8,6,55,5.8,55.2,5.4c0.2-0.3,0.3-0.9,0.2-1.5
									L55.1-9.5L47.9,6.1c-0.1,0.2-0.2,0.4-0.4,0.5c-0.1,0.1-0.4,0.2-0.7,0.2c-0.3,0.1-0.6,0.1-0.8,0c-0.2-0.1-0.3-0.2-0.4-0.4
									L39.1-9.3L38.7,4.3c0,0.6,0,1.1,0.2,1.4C39,6,39.2,6.3,39.4,6.4c0.2,0.2,0.4,0.3,0.6,0.5c0.2,0.1,0.3,0.3,0.3,0.6
									c0,0.3-0.1,0.5-0.4,0.6c-0.2,0.1-0.6,0.2-1.1,0.2h-2.5c-1,0-1.5-0.3-1.5-0.8c0-0.3,0.1-0.5,0.3-0.6c0.2-0.2,0.4-0.3,0.6-0.5
									C36,6.3,36.2,6,36.4,5.7c0.2-0.3,0.3-0.8,0.3-1.4l0.6-14.7c0-0.6-0.1-1-0.2-1.3c-0.2-0.3-0.3-0.5-0.6-0.7
									c-0.2-0.2-0.4-0.4-0.6-0.5c-0.2-0.2-0.3-0.4-0.3-0.7c0-0.3,0.1-0.5,0.3-0.6c0.2-0.1,0.6-0.2,1.1-0.2h3.2
									c0.5,0,0.9,0.2,1.1,0.7l6.5,15.5l7.1-15.5c0.2-0.5,0.6-0.7,1.1-0.7h3c0.5,0,0.9,0.1,1.1,0.2c0.2,0.1,0.3,0.3,0.3,0.6
									c0,0.3-0.1,0.5-0.3,0.7c-0.2,0.2-0.4,0.3-0.6,0.5c-0.2,0.2-0.4,0.4-0.6,0.7C58.7-11.4,58.7-11,58.7-10.4z"/>
							</g>
						</g>
					</g>
					<g>
						<g transform="translate(85.107075, 20.301824)">
							<g>
								<path class="st7" d="M58.1,6.1c0.4,0,0.6,0.1,0.6,0.5c0,0.3-0.1,0.6-0.4,0.9C58,7.8,57.6,8,57.1,8.2
									c-0.5,0.2-0.9,0.3-1.4,0.3c-0.8,0-1.3-0.2-1.7-0.6c-0.4-0.4-0.6-1-0.8-1.8c-0.7,0.9-1.6,1.5-2.6,1.9c-1,0.4-2,0.6-2.9,0.6
									c-1.9,0-3.4-0.5-4.5-1.4c-1.1-0.9-1.6-2.1-1.6-3.5c0-1,0.3-1.9,0.9-2.7c0.6-0.8,1.4-1.4,2.4-1.9c1-0.5,2.3-0.7,3.7-0.7
									c0.6,0,1.1,0,1.5,0.1c0.4,0.1,1,0.1,1.5,0.2c-0.2-0.8-0.4-1.5-0.7-2.1c-0.2-0.6-0.6-1.1-1.1-1.4c-0.5-0.3-1.1-0.5-2-0.5
									c-0.8,0-1.6,0.1-2.2,0.4c-0.7,0.2-1.3,0.5-1.9,0.9c-0.3,0.2-0.6,0.2-0.8,0c-0.2-0.2-0.2-0.5,0-0.9c0.3-0.4,0.7-0.8,1.3-1.2
									c0.6-0.4,1.3-0.8,2.1-1.1c0.8-0.3,1.8-0.4,2.8-0.4c1.3,0,2.3,0.2,3.1,0.8C53-6.3,53.6-5.6,54-4.8c0.4,0.8,0.7,1.6,1,2.6
									l1.5,6.6c0.2,0.7,0.4,1.2,0.7,1.4C57.5,6,57.8,6.1,58.1,6.1z M48.9,6.7c0.7,0,1.3-0.1,2-0.4c0.6-0.3,1.1-0.7,1.5-1.1
									c0.4-0.4,0.5-0.9,0.4-1.4c0-0.3-0.1-0.7-0.2-1.1c-0.1-0.4-0.2-1-0.4-1.6c0-0.3-0.2-0.5-0.6-0.6c-0.3-0.2-0.7-0.3-1.1-0.4
									C49.9,0,49.5,0,49.2,0c-1.3,0-2.3,0.3-3,0.9c-0.7,0.6-1,1.4-1,2.4c0,1,0.4,1.8,1,2.5C46.9,6.4,47.8,6.7,48.9,6.7z"/>
							</g>
						</g>
					</g>
					<g>
						<g transform="translate(98.728158, 20.301824)">
							<g>
								<path class="st7" d="M59.5-7.2h2c0.4,0,0.7,0.1,1,0.1c0.2,0.1,0.4,0.3,0.4,0.6c0,0.2-0.1,0.4-0.2,0.6
									c-0.1,0.1-0.3,0.3-0.6,0.5c-0.2,0.2-0.5,0.4-0.7,0.8c-0.2,0.3-0.5,0.8-0.8,1.5L56.4,7.6c-0.6,1.5-1.2,2.8-1.7,3.9
									c-0.6,1.1-1.2,2-2,2.6c-0.8,0.6-1.8,0.9-3.1,0.9c-1,0-1.8-0.2-2.4-0.8c-0.7-0.5-1-1.1-1-1.9c0-0.5,0.2-1,0.5-1.4
									c0.3-0.4,0.8-0.6,1.3-0.6c0.4,0,0.7,0.1,1,0.4c0.2,0.2,0.5,0.5,0.7,0.9c0.2,0.3,0.4,0.6,0.7,0.9s0.6,0.4,1,0.4
									c0.5,0,1-0.3,1.3-1c0.4-0.7,0.5-1.4,0.5-2.2c0-0.4-0.1-0.8-0.2-1.2c-0.1-0.4-0.2-0.8-0.4-1.1L48.4-3.2
									c-0.2-0.6-0.5-1.1-0.8-1.5c-0.3-0.3-0.5-0.6-0.7-0.8c-0.2-0.2-0.4-0.4-0.5-0.5c-0.1-0.1-0.2-0.3-0.2-0.6
									c0-0.3,0.1-0.5,0.4-0.6c0.2-0.1,0.6-0.1,1-0.1h4.3c0.4,0,0.8,0.1,1,0.1C53-7,53.1-6.8,53.1-6.5c0,0.2-0.1,0.4-0.3,0.6
									c-0.2,0.1-0.4,0.3-0.5,0.5C52.1-5.2,52-5,51.9-4.6c-0.1,0.3,0,0.8,0.3,1.5l3.3,8.5l3.3-8.5c0.2-0.6,0.4-1.1,0.3-1.5
									c0-0.3-0.1-0.6-0.3-0.8c-0.2-0.2-0.3-0.3-0.5-0.5c-0.2-0.1-0.2-0.3-0.2-0.6c0-0.3,0.1-0.5,0.4-0.6
									C58.7-7.2,59.1-7.2,59.5-7.2z"/>
							</g>
						</g>
					</g>
					<g>
						<g transform="translate(112.131108, 20.301824)">
							<g>
								<path class="st7" d="M77.9-0.8L79,4.8c0.1,0.5,0.2,0.9,0.4,1.1c0.2,0.3,0.4,0.5,0.6,0.6c0.2,0.1,0.4,0.3,0.5,0.4
									c0.1,0.1,0.2,0.3,0.2,0.6c0,0.3-0.1,0.5-0.4,0.6c-0.2,0.1-0.6,0.1-1,0.1h-4c-0.4,0-0.8-0.1-1-0.2C74.1,8,74,7.8,74,7.5
									c0-0.2,0.1-0.4,0.2-0.6c0.2-0.1,0.3-0.3,0.5-0.5c0.2-0.2,0.4-0.4,0.5-0.7c0.1-0.3,0.1-0.7,0-1.2l-1-5.2
									c-0.1-0.8-0.3-1.5-0.5-2.2c-0.2-0.7-0.5-1.3-0.9-1.7C72.5-5,71.8-5.2,71-5.1c-0.6,0-1.2,0.2-1.8,0.5c-0.6,0.3-1,0.9-1.4,1.6
									c-0.4,0.7-0.6,1.6-0.6,2.7l0,4.2c0,0.8,0.1,1.3,0.2,1.7C67.6,6,67.8,6.3,68,6.4c0.2,0.2,0.4,0.3,0.5,0.5
									c0.2,0.1,0.2,0.4,0.2,0.7c0,0.3-0.1,0.5-0.4,0.6c-0.2,0.1-0.6,0.1-1,0.1h-4c-0.4,0-0.7-0.1-1-0.2C62.1,8,62,7.8,62,7.5
									c0-0.3,0.1-0.5,0.2-0.6c0.2-0.2,0.3-0.3,0.5-0.5C63,6.3,63.1,6,63.3,5.6c0.2-0.4,0.2-0.9,0.2-1.7v-4.4
									c0-0.9-0.1-1.7-0.3-2.4c-0.2-0.7-0.5-1.3-0.9-1.8c-0.4-0.4-1.1-0.6-2-0.6c-0.7,0-1.3,0.2-1.9,0.6c-0.6,0.4-1.1,1-1.5,1.7
									c-0.4,0.8-0.6,1.7-0.6,2.9v4c0,0.8,0.1,1.3,0.2,1.7C56.8,6,57,6.3,57.2,6.4c0.2,0.2,0.4,0.3,0.5,0.5
									c0.2,0.1,0.2,0.4,0.2,0.7c0,0.3-0.1,0.5-0.4,0.6c-0.2,0.1-0.6,0.1-1,0.1h-4.1c-0.4,0-0.8-0.1-1-0.2
									c-0.2-0.1-0.4-0.3-0.4-0.6c0-0.3,0.1-0.5,0.2-0.6c0.2-0.2,0.3-0.3,0.5-0.5c0.2-0.2,0.4-0.4,0.6-0.8c0.2-0.4,0.2-0.9,0.2-1.7
									v-6.3c0-0.5-0.1-0.9-0.2-1.3c-0.2-0.4-0.4-0.7-0.8-0.9c-0.2-0.1-0.3-0.2-0.4-0.4c-0.1-0.1-0.2-0.3-0.2-0.5
									c0-0.2,0.1-0.4,0.2-0.5c0.1-0.1,0.4-0.3,0.8-0.5c0.6-0.3,1.2-0.5,1.9-0.7c0.7-0.2,1.1-0.3,1.4-0.4c0.4,0,0.7,0.3,0.7,0.8
									l0,2.5c0.6-1.1,1.4-2,2.4-2.5c1-0.6,2-0.9,3.2-0.9c2.6,0,4.3,1.1,5.1,3.4c0.6-1.1,1.4-2,2.4-2.6c1-0.6,2-0.9,3.1-0.9
									c1.2,0,2.2,0.2,2.9,0.7c0.7,0.5,1.3,1.2,1.8,2.2C77.3-3.6,77.6-2.4,77.9-0.8z"/>
							</g>
						</g>
					</g>
					<g>
						<g transform="translate(135.471144, 20.301824)">
							<g>
								<path class="st7" d="M66.3,8.6c-1.4,0-2.7-0.3-3.9-0.9c-1.1-0.6-2-1.5-2.7-2.6c-0.7-1.1-1-2.4-1-4c0-1.6,0.4-3.1,1.1-4.4
									c0.8-1.3,1.8-2.4,3.1-3.1c1.3-0.8,2.8-1.1,4.5-1.1c1.5,0,2.7,0.3,3.9,1c1.1,0.7,2,1.6,2.6,2.8c0.6,1.2,1,2.5,1,3.9
									c0,1.6-0.4,3-1.1,4.3c-0.7,1.3-1.8,2.3-3,3.1C69.4,8.3,67.9,8.6,66.3,8.6z M67.5,6.8c1.2,0,2.2-0.5,2.8-1.4
									c0.7-0.9,1-2,1-3.4c0-1.3-0.2-2.5-0.7-3.7c-0.4-1.2-1.1-2.1-1.8-2.9c-0.8-0.7-1.7-1.1-2.7-1.1c-0.9,0-1.6,0.2-2.1,0.7
									c-0.6,0.4-1,1.1-1.3,1.8c-0.3,0.8-0.4,1.6-0.4,2.5c0,1.3,0.2,2.6,0.7,3.7c0.4,1.1,1.1,2,1.8,2.7C65.6,6.4,66.5,6.8,67.5,6.8
									z"/>
							</g>
						</g>
					</g>
				</g>
			</g>
		</g>
	</g>
</g>
<g>
	<defs>
		<rect id="SVGID_00000077305433280946469700000014376751425474463894_" x="262.7" y="6.9" width="28" height="28"/>
	</defs>
	<clipPath id="SVGID_00000123414898017064672860000002783004147723219871_">
		<use xlink:href="#SVGID_00000077305433280946469700000014376751425474463894_"  style="overflow:visible;"/>
	</clipPath>
	<g style="clip-path:url(#SVGID_00000123414898017064672860000002783004147723219871_);">
		<g>
			<defs>
				
					<rect id="SVGID_00000168097818108376266700000010893893909442411137_" x="264.4" y="7.7" transform="matrix(0.4235 -0.9059 0.9059 0.4235 141.2915 262.649)" width="25.2" height="25.2"/>
			</defs>
			<clipPath id="SVGID_00000116930235056945296690000008327178325182560651_">
				<use xlink:href="#SVGID_00000168097818108376266700000010893893909442411137_"  style="overflow:visible;"/>
			</clipPath>
			<g style="clip-path:url(#SVGID_00000116930235056945296690000008327178325182560651_);">
				<g>
					<defs>
						
							<rect id="SVGID_00000024681720796437783120000003672105288516295314_" x="264.4" y="7.7" transform="matrix(0.4235 -0.9059 0.9059 0.4235 141.2915 262.649)" width="25.2" height="25.2"/>
					</defs>
					<clipPath id="SVGID_00000032616981337865064430000012431358170330100102_">
						<use xlink:href="#SVGID_00000024681720796437783120000003672105288516295314_"  style="overflow:visible;"/>
					</clipPath>
					<g style="clip-path:url(#SVGID_00000032616981337865064430000012431358170330100102_);">
						<path class="st3" d="M286.5,29.5c-0.6-1.4-1.7-3.8-3.4-6.3c3-0.5,5.5-1.3,6.9-1.8c0.6-0.2,0.6-1,0-1.2
							c-1.4-0.6-3.8-1.5-6.8-2.1c1.8-2.5,3-4.8,3.6-6.2c0.2-0.5-0.3-1.1-0.8-0.9c-1.4,0.6-3.8,1.7-6.3,3.4c-0.5-3-1.3-5.5-1.8-6.9
							c-0.2-0.6-1-0.6-1.2,0c-0.6,1.4-1.5,3.8-2.1,6.8c-2.5-1.8-4.8-3-6.2-3.6c-0.5-0.2-1.1,0.3-0.9,0.8c0.6,1.4,1.7,3.8,3.4,6.3
							c-3,0.5-5.5,1.3-6.9,1.8c-0.6,0.2-0.6,1,0,1.2c1.4,0.6,3.8,1.5,6.8,2.1c-1.8,2.5-3,4.8-3.6,6.2c-0.2,0.5,0.3,1.1,0.8,0.9
							c1.4-0.6,3.8-1.7,6.3-3.4c0.5,3,1.3,5.5,1.8,6.9c0.2,0.6,1,0.6,1.2,0c0.6-1.4,1.5-3.8,2.1-6.8c2.5,1.8,4.8,3,6.2,3.6
							C286.2,30.6,286.8,30.1,286.5,29.5z M276,22.9c-1.3-0.6-1.9-2.2-1.3-3.5s2.2-1.9,3.5-1.3c1.3,0.6,1.9,2.2,1.3,3.5
							C278.9,23,277.3,23.5,276,22.9z"/>
					</g>
				</g>
			</g>
		</g>
	</g>
</g>
</svg>
