<?xml version="1.0" encoding="UTF-8"?>
<svg id="Capa_1" xmlns="http://www.w3.org/2000/svg" version="1.1" viewBox="0 0 800 800">
  <!-- Generator: Adobe Illustrator 29.7.1, SVG Export Plug-In . SVG Version: 2.1.1 Build 8)  -->
  <defs>
    <style>
      .st0, .st1 {
        fill: #fff;
      }

      .st1 {
        fill-rule: evenodd;
      }
    </style>
  </defs>
  <path class="st0" d="M200.5,266.9c3.8-30.1,43-71.1,74-66.5h0c30.2,5.7,54.2,57.7,67.7,81.1,9.6,17,3.4,34.2-5.6,41.4-12,9.7-30.9,23.1-26.9,36.5,7,23.9,90.4,107.2,131.3,130.9,15.5,9,26.8-14.7,36.4-26.8,7-9.3,24.2-14.9,41.1-5.7,25.3,14.7,49.1,31.9,71.2,51.1,11,9.2,13.6,22.8,6,37.2-13.4,25.3-52.3,58.7-80.5,51.9-49.3-11.8-248.5-89.1-312.5-312.8-3.6-10.6-2.7-14.6-2.2-18.4Z"/>
  <path class="st1" d="M400,766.7c-40.8,0-63.4-4.4-100-16.7l-70.2,35.1c-44.3,22.2-96.5-10.1-96.5-59.6v-75.5c-71.8-66.9-100-144.1-100-250,0-202.5,164.2-366.7,366.7-366.7s366.7,164.2,366.7,366.7-164.2,366.7-366.7,366.7ZM200,621l-21.2-19.8c-55.8-52-78.8-110.1-78.8-201.2,0-165.7,134.3-300,300-300s300,134.3,300,300-134.3,300-300,300-48.3-3-78.8-13.2l-26.2-8.8-94.9,47.5v-104.5Z"/>
</svg>